<svg id="Layer_1" data-name="Layer 1" xmlns="http://www.w3.org/2000/svg" viewBox="0 0 2085 2085"><defs><style>.cls-1{fill:none;stroke:#d10000;stroke-miterlimit:10;stroke-width:40px;}</style></defs><path class="cls-1" d="M1611.3,473.7h0c157.06,157.07,235.6,362.94,235.6,568.8s-78.54,411.73-235.6,568.8h0c-157.07,157.06-362.94,235.6-568.8,235.6s-411.73-78.54-568.8-235.6h0c-157.06-157.07-235.6-362.94-235.6-568.8s78.54-411.73,235.6-568.8h0c157.07-157.06,362.94-235.6,568.8-235.6"/><path class="cls-1" d="M1530.59,1530.58h0c-134.77,134.76-311.41,202.17-488.08,202.17"/><path class="cls-1" d="M1042.5,352.24c176.67,0,353.31,67.41,488.08,202.17h0c134.76,134.77,202.17,311.41,202.17,488.08"/><path class="cls-1" d="M554.42,1530.59h0c-134.76-134.77-202.17-311.41-202.17-488.08s67.41-353.31,202.17-488.08"/><path class="cls-1" d="M1042.5,466.39c147.47,0,294.9,56.27,407.37,168.74h0C1562.34,747.6,1618.61,895,1618.61,1042.5s-56.27,294.9-168.74,407.37h0c-112.47,112.47-259.9,168.74-407.37,168.74s-294.9-56.27-407.37-168.74h0C522.66,1337.4,466.39,1190,466.39,1042.5s56.27-294.9,168.74-407.37h0C747.6,522.66,895,466.39,1042.5,466.39Z"/><path class="cls-1" d="M1042.5,580.53a460.52,460.52,0,0,1,326.66,135.31h0a462,462,0,0,1,0,653.32h0a462,462,0,0,1-653.32,0h0a462,462,0,0,1,0-653.32h0"/><path class="cls-1" d="M1288.45,1288.45h0a347.82,347.82,0,0,1-491.9,0h0a347.82,347.82,0,0,1,0-491.9h0a347.82,347.82,0,0,1,491.9,0h0a346.75,346.75,0,0,1,101.88,246"/><path class="cls-1" d="M877.26,1207.74h0a233.7,233.7,0,0,1,0-330.48h0a233.7,233.7,0,0,1,330.48,0h0a233.7,233.7,0,0,1,0,330.48h0a233,233,0,0,1-165.24,68.44"/><path class="cls-1" d="M1042.5,923A119.2,119.2,0,0,1,1127,958h0a119.55,119.55,0,0,1,0,169.06h0A119.55,119.55,0,0,1,958,1127h0A119.55,119.55,0,0,1,958,958h0A119.2,119.2,0,0,1,1042.5,923Z"/></svg>